#!OML:ASF X:\für Bonn\!DataBase\2005_08_12_Daniel\c3d\Daniel.ASF
:FULLY-SPECIFIED
:DEGREES
47
root -0.5659 17.375 0.48388 168.85 -5.26725 -177.798
lowerback 31.5706 0.869364 2.64604
upperback 10.5618 -1.14605 -1.38554
thorax -5.30959 -1.72095 -2.56642
lowerneck 6.4163 -1.7669 -4.74741
upperneck 11.6556 -3.8033 3.2019
head 2.79824 -2.37919 1.81989
rclavicle -1.07344e-014 -2.62396e-014
rhumerus 151.427 -194.653 -275.991
rradius 68.1775
rwrist -41.3912
rhand -17.9376 15.5063
rfingers 7.12502
rthumb 8.33054 -14.3095
lclavicle -1.07344e-014 -2.62396e-014
lhumerus -24.471 10.4937 90.1196
lradius 56.6348
lwrist -2.98925
lhand -12.6872 -9.31707
lfingers 7.12502
lthumb 13.3947 20.2323
rfemur -4.58108 -1.41573 18.3125
rtibia 30.3992
rfoot -16.4868 -5.99946
rtoes -11.142
lfemur -10.8344 -11.6586 -18.661
ltibia 40.9889
lfoot -18.6949 -5.58302
ltoes -6.99808
48
root -0.548915 17.3717 0.514476 169.105 -5.37481 -177.755
lowerback 32.2539 0.915082 2.85123
upperback 10.7997 -1.13924 -1.33612
thorax -5.33847 -1.76408 -2.62568
lowerneck 6.54503 -1.87251 -4.69587
upperneck 11.1246 -3.88393 3.29808
head 2.60077 -2.39008 1.84535
rclavicle -1.11319e-014 -2.06736e-014
rhumerus 152.255 -194.854 -275.695
rradius 67.1061
rwrist -40.8154
rhand -18.2616 15.8161
rfingers 7.12502
rthumb 8.01787 -14.0118
lclavicle -1.11319e-014 -2.06736e-014
lhumerus -24.3445 10.4263 90.3909
lradius 57.1048
lwrist -3.04541
lhand -12.7764 -9.48637
lfingers 7.12502
lthumb 13.3087 20.0687
rfemur -5.01101 -1.46976 18.4154
rtibia 30.4862
rfoot -16.4888 -6.07665
rtoes -10.9915
lfemur -11.4225 -11.5367 -18.4471
ltibia 41.2156
lfoot -18.6041 -5.84253
ltoes -7.02005
49
root -0.530546 17.3674 0.546678 169.346 -5.46382 -177.708
lowerback 33.3369 0.961835 3.0663
upperback 10.6636 -1.10808 -1.38474
thorax -5.34561 -1.78998 -2.57957
lowerneck 6.51346 -1.97252 -4.62191
upperneck 10.8064 -3.96711 3.36838
head 2.50319 -2.40771 1.85582
rclavicle 2.3059e-014 2.46493e-014
rhumerus 153.147 -195.011 -275.369
rradius 65.9818
rwrist -40.1092
rhand -18.5812 16.1762
rfingers 7.12502
rthumb 7.70941 -13.6632
lclavicle 2.3059e-014 2.46493e-014
lhumerus -24.2057 10.2748 90.6342
lradius 57.5031
lwrist -3.09184
lhand -12.8669 -9.67006
lfingers 7.12502
lthumb 13.2215 19.8907
rfemur -5.46308 -1.53233 18.5256
rtibia 30.6053
rfoot -16.4914 -6.1541
rtoes -10.8942
lfemur -12.0178 -11.3914 -18.2225
ltibia 41.4592
lfoot -18.5128 -6.11599
ltoes -7.00714
50
root -0.512608 17.3614 0.581307 169.612 -5.58162 -177.674
lowerback 34.0571 0.998493 3.2889
upperback 10.8846 -1.10835 -1.3523
thorax -5.36477 -1.83797 -2.6499
lowerneck 6.44984 -2.05443 -4.49415
upperneck 10.5854 -4.03327 3.42049
head 2.44145 -2.41954 1.85005
rclavicle -1.90833e-014 -1.03368e-014
rhumerus 154.059 -195.107 -275.073
rradius 64.8056
rwrist -39.3913
rhand -18.8514 16.6719
rfingers 7.12502
rthumb 7.44857 -13.177
lclavicle -1.90833e-014 -1.03368e-014
lhumerus -24.141 10.0955 90.8002
lradius 57.9001
lwrist -3.11185
lhand -12.8559 -9.85207
lfingers 7.12502
lthumb 13.2321 19.708
rfemur -5.96985 -1.67333 18.6062
rtibia 30.7719
rfoot -16.4521 -6.15668
rtoes -10.7441
lfemur -12.656 -11.2342 -18.0078
ltibia 41.7158
lfoot -18.4314 -6.41927
ltoes -7.00794
51
root -0.492824 17.3551 0.616262 169.875 -5.6713 -177.628
lowerback 34.7739 1.05774 3.50882
upperback 11.1179 -1.08375 -1.28928
thorax -5.36025 -1.87702 -2.69523
lowerneck 6.33364 -2.13415 -4.42252
upperneck 10.4281 -4.1029 3.47625
head 2.4121 -2.43658 1.85461
rclavicle 9.93923e-015 3.06128e-014
rhumerus 155.046 -195.184 -274.717
rradius 63.6008
rwrist -38.5877
rhand -19.1061 17.1178
rfingers 7.12502
rthumb 7.20276 -12.7396
lclavicle 9.93923e-015 3.06128e-014
lhumerus -24.0607 9.85617 90.9799
lradius 58.2437
lwrist -3.13742
lhand -12.9179 -9.98562
lfingers 7.12502
lthumb 13.1723 19.5783
rfemur -6.50465 -1.8066 18.7093
rtibia 30.9685
rfoot -16.4194 -6.15843
rtoes -10.6908
lfemur -13.3023 -11.0611 -17.78
ltibia 41.9898
lfoot -18.3471 -6.69162
ltoes -7.08123
52
root -0.474164 17.3482 0.651986 170.142 -5.77496 -177.599
lowerback 35.4967 1.10421 3.72076
upperback 11.3462 -1.07792 -1.23327
thorax -5.35853 -1.92538 -2.73653
lowerneck 6.19013 -2.2005 -4.3048
upperneck 10.3475 -4.15756 3.4849
head 2.40983 -2.44825 1.83474
rclavicle 2.34566e-014 -2.62396e-014
rhumerus 156.061 -195.223 -274.376
rradius 62.3735
rwrist -37.778
rhand -19.319 17.5876
rfingers 7.12502
rthumb 6.99724 -12.2768
lclavicle 2.34566e-014 -2.62396e-014
lhumerus -24.0192 9.68097 91.1235
lradius 58.5444
lwrist -3.16448
lhand -12.887 -10.1185
lfingers 7.12502
lthumb 13.2021 19.4435
rfemur -7.06762 -1.9851 18.7751
rtibia 31.2083
rfoot -16.4194 -6.10494
rtoes -10.6745
lfemur -13.9582 -10.9144 -17.5775
ltibia 42.2725
lfoot -18.2533 -6.96356
ltoes -7.10018
53
root -0.454817 17.3403 0.689971 170.408 -5.86667 -177.57
lowerback 36.3386 1.15136 3.9366
upperback 11.4821 -1.06542 -1.16626
thorax -5.3606 -1.97321 -2.76382
lowerneck 5.98829 -2.26397 -4.22874
upperneck 10.3282 -4.21379 3.50285
head 2.43974 -2.46281 1.82436
rclavicle 3.97569e-016 -5.96354e-015
rhumerus 157.115 -195.306 -273.988
rradius 61.1437
rwrist -36.9749
rhand -19.6201 18.0833
rfingers 7.12502
rthumb 6.70654 -11.7905
lclavicle 3.97569e-016 -5.96354e-015
lhumerus -23.9268 9.48891 91.2587
lradius 58.7351
lwrist -3.23431
lhand -12.8232 -10.252
lfingers 7.12502
lthumb 13.2636 19.3059
rfemur -7.6529 -2.16734 18.8398
rtibia 31.4702
rfoot -16.3795 -6.02102
rtoes -10.4867
lfemur -14.629 -10.7153 -17.3718
ltibia 42.5655
lfoot -18.1611 -7.2541
ltoes -7.17266
